/* XPM */
static char * prova_xpm[] = {
"24 34 110 2",
"  	c None",
". 	c #FEFEFE",
"+ 	c #FCFCFC",
"@ 	c #FCFBFB",
"# 	c #ECD9CE",
"$ 	c #E1BEA8",
"% 	c #E0BFAB",
"& 	c #FEFDFE",
"* 	c #CE8E67",
"= 	c #B43B00",
"- 	c #B04000",
"; 	c #D4EAD4",
"> 	c #D1936E",
", 	c #B84400",
"' 	c #B54804",
") 	c #D5EBD5",
"! 	c #FAFBFA",
"~ 	c #50BC50",
"{ 	c #D3A182",
"] 	c #BD5F23",
"^ 	c #BA622A",
"/ 	c #75C975",
"( 	c #D3ECD3",
"_ 	c #FFFEFF",
": 	c #B6E2B6",
"< 	c #00A900",
"[ 	c #7EBA68",
"} 	c #76A74D",
"| 	c #75A84F",
"1 	c #3ABB3A",
"2 	c #51C151",
"3 	c #FBFCFB",
"4 	c #EBF6EB",
"5 	c #32B832",
"6 	c #00AE00",
"7 	c #00AC00",
"8 	c #00AF00",
"9 	c #B4E2B4",
"0 	c #BCE3BC",
"a 	c #00AA00",
"b 	c #01AE01",
"c 	c #00AD00",
"d 	c #4CBF4C",
"e 	c #D7EED7",
"f 	c #19B319",
"g 	c #00AB00",
"h 	c #89D389",
"i 	c #FFFFFF",
"j 	c #8ED48E",
"k 	c #51C451",
"l 	c #4BBF4E",
"m 	c #4ABF4E",
"n 	c #22B522",
"o 	c #30B830",
"p 	c #F2F8F2",
"q 	c #F1F8F1",
"r 	c #30B330",
"s 	c #E3F2E3",
"t 	c #BFDCDC",
"u 	c #BEDBDC",
"v 	c #64C564",
"w 	c #B3E1B3",
"x 	c #B6DFB3",
"y 	c #B3D4FA",
"z 	c #BEE3BB",
"A 	c #FFFEFC",
"B 	c #F9FAFA",
"C 	c #DAE6F4",
"D 	c #DEECF9",
"E 	c #E0EDF8",
"F 	c #DAE8F6",
"G 	c #9ACAFB",
"H 	c #D9E8F6",
"I 	c #E0EDF9",
"J 	c #DBE9F7",
"K 	c #DDE9F7",
"L 	c #F8FAFA",
"M 	c #FBFBFB",
"N 	c #DFEAF6",
"O 	c #B2D3F4",
"P 	c #A3CFFB",
"Q 	c #A3CEF9",
"R 	c #98CAFE",
"S 	c #B2D4F5",
"T 	c #DDEAF5",
"U 	c #FAFBFB",
"V 	c #FAFBFC",
"W 	c #E3EFFA",
"X 	c #BCD9F6",
"Y 	c #97CAFE",
"Z 	c #99CBFE",
"` 	c #BBD9F6",
" .	c #FFFFFE",
"..	c #D9E7F4",
"+.	c #93C8FD",
"@.	c #B9D7F6",
"#.	c #9AC9F9",
"$.	c #C9E1F7",
"%.	c #C9E0F7",
"&.	c #F3F5F8",
"*.	c #B8D5F2",
"=.	c #E3EFF9",
"-.	c #F8FAFB",
";.	c #B8D6F2",
">.	c #F3F5F7",
",.	c #FBFBFC",
"'.	c #F2F6FB",
").	c #FEFEFD",
"!.	c #F2F7FB",
"~.	c #FFFEFE",
". . . . . . . . . . . . . . . . . . . . . . . . ",
". . . . . . . . . . . . . . . . . . . . . . . . ",
". . . . . . . . . . . . . . . . . . . . . . . . ",
". . . . . . . . . . . . . . . . . . . . . . . . ",
". . . . . . . . . . . . . . . . . . . . . . . . ",
". . . . . . . . . . . . . . . . . . . . . . . . ",
". . . . . . . . . . . . . . . . . . . . . . . . ",
". . . . . . . . . + @ @ @ @ @ @ . . . . . . . . ",
". . . . . . . . . # $ $ $ $ $ % . . . . . . . . ",
". . . . . . . . & * = = = = = - & . . . . . . . ",
". . . . . . . . ; > , , , , , ' ) & . . . . . . ",
". . . . . . . ! ~ { ] ] ] ] ] ^ / ( . . . . . . ",
". . . . . . _ : < [ } } } } } | 1 2 3 . . . . . ",
". . . . . . 4 5 6 7 8 8 8 8 8 8 7 7 9 . . . . . ",
". . . . . . 0 a b b b b b b b b b c d . . . . . ",
". . . . . . e f 6 g g g g g g g 7 7 h . . . . . ",
". . . . . . i j a k k k l m k k n o p . . . . . ",
". . . . . . . q r s s s t u s s v w _ . . . . . ",
". . . . . . . i x i i i y y i i z A . . . . . . ",
". . . . . . . B C D E F G G H I J K L . . . . . ",
". . . . . . . M N O P Q R R Q P S T U . . . . . ",
". . . . . . . . V W X Y Z Z Y ` W V . . . . . . ",
". . . . . . . . .  ...R +.+.R .. .. . . . . . . ",
". . . . . . . . . . @.#.$.%.#.@.. . . . . . . . ",
". . . . . . . . . &.*.=.-.-.=.;.>.. . . . . . . ",
". . . . . . . . . ,.'.).. . ).!.,.. . . . . . . ",
". . . . . . . . . . ~.. . . . ~.. . . . . . . . ",
". . . . . . . . . . . . . . . . . . . . . . . . ",
". . . . . . . . . . . . . . . . . . . . . . . . ",
". . . . . . . . . . . . . . . . . . . . . . . . ",
". . . . . . . . . . . . . . . . . . . . . . . . ",
". . . . . . . . . . . . . . . . . . . . . . . . ",
". . . . . . . . . . . . . . . . . . . . . . . . ",
". . . . . . . . . . . . . . . . . . . . . . . . "};
